<svg width="1007" height="464" fill="none" xmlns="http://www.w3.org/2000/svg"><path d="M212 339.4V125.8h45.9c16.8 0 29.1 3.9 39.6 15s13.8 24.6 13.8 50.1c0 18.6-1.5 31.2-8.7 42.9-8.4 13.8-21.9 22.2-44.4 22.2h-15.6v83.4H212Zm30.6-184.8v72.6h14.7c24.9 0 25.2-14.7 25.2-36 0-20.1 0-36.6-24-36.6h-15.9ZM364.768 154.6v66.6h17.4c21.3 0 24.6-12 24.6-33.3 0-21.6-3.6-33.3-26.1-33.3h-15.9Zm-30.6 184.8V125.8h49.2c36.3 0 54 21.3 54 62.7 0 24.6-6.9 42.6-26.4 53.4l33 97.5h-32.4l-28.5-91.2h-18.3v91.2h-30.6ZM461.902 339.4V125.8h91.2v28.8h-60.6v62.7h52.8v28.8h-52.8v62.7h60.6v30.6h-91.2ZM671.938 172.3v15h-30.601v-6.9c0-14.1-6-25.8-21.6-25.8-16.8 0-20.7 13.5-20.7 27.6 0 16.5 1.501 22.2 17.401 28.5l23.399 9.3c27 10.2 32.101 27.3 32.101 58.5 0 36-13.201 62.7-52.801 62.7-29.7 0-52.199-21.9-52.199-50.7v-11.4h30.599v9.6c0 11.1 6 21.9 21.6 21.9 20.7 0 22.2-12.3 22.2-31.8 0-22.8-2.7-26.4-17.7-32.4l-21.9-9c-26.4-10.8-33.299-28.2-33.299-54.9 0-32.4 17.399-58.5 52.5-58.5 30.6 0 51 24.6 51 48.3ZM793.812 172.3v15h-30.6v-6.9c0-14.1-6-25.8-21.6-25.8-16.8 0-20.7 13.5-20.7 27.6 0 16.5 1.5 22.2 17.4 28.5l23.4 9.3c27 10.2 32.1 27.3 32.1 58.5 0 36-13.2 62.7-52.8 62.7-29.7 0-52.2-21.9-52.2-50.7v-11.4h30.6v9.6c0 11.1 6 21.9 21.6 21.9 20.7 0 22.2-12.3 22.2-31.8 0-22.8-2.7-26.4-17.7-32.4l-21.9-9c-26.4-10.8-33.3-28.2-33.3-54.9 0-32.4 17.4-58.5 52.5-58.5 30.6 0 51 24.6 51 48.3Z" fill="#373535"/><path d="M521.908 41.872 532.7.7H0V464h411.268l10.792-41.174H35.685V41.872h486.223ZM569.857.836l-10.756 41.036h411.466v380.954H459.256l-10.645 40.617 557.639.557V.7" fill="#231F20"/></svg>