<svg width="1903" height="182" fill="none" xmlns="http://www.w3.org/2000/svg"><path d="M62.15 181.836c-19.09 0-34.209-4.307-45.358-12.923C5.812 160.298.32 148.81.32 134.451v-7.855c0-1.689.845-2.534 2.534-2.534h12.416c1.69 0 2.534.845 2.534 2.534v6.842c0 9.798 4.055 17.737 12.163 23.819 8.109 5.913 19.343 8.869 33.702 8.869 13.007 0 22.89-2.703 29.647-8.109 6.757-5.575 10.136-12.923 10.136-22.045 0-5.913-1.605-10.981-4.815-15.204-3.04-4.223-7.855-8.193-14.443-11.91-6.42-3.716-15.542-8.024-27.367-12.923-12.67-5.068-22.552-9.46-29.647-13.176-6.926-3.886-12.585-8.785-16.977-14.697C5.98 61.98 3.869 54.379 3.869 45.256c0-14.19 4.899-25.17 14.697-32.941C28.532 4.375 42.13.405 59.361.405c18.751 0 33.533 4.392 44.344 13.177 10.812 8.784 16.218 20.44 16.218 34.968v5.575c0 1.69-.845 2.534-2.534 2.534h-12.67c-1.689 0-2.534-.845-2.534-2.534v-4.561c0-9.798-3.885-17.822-11.656-24.073-7.602-6.25-18.245-9.375-31.928-9.375-11.994 0-21.2 2.45-27.62 7.348-6.42 4.9-9.63 11.994-9.63 21.285 0 6.082 1.521 11.15 4.562 15.204 3.21 3.886 7.686 7.349 13.43 10.39 5.913 2.871 14.95 6.672 27.113 11.402 12.332 5.068 22.215 9.798 29.648 14.19 7.601 4.392 13.683 9.798 18.244 16.218 4.73 6.25 7.095 13.936 7.095 23.059 0 14.19-5.237 25.508-15.711 33.955-10.473 8.446-25.001 12.669-43.584 12.669ZM260.431 2.432c1.69 0 2.534.845 2.534 2.534v10.896c0 1.69-.844 2.534-2.534 2.534h-49.665c-.676 0-1.014.338-1.014 1.014v157.865c0 1.69-.844 2.534-2.534 2.534h-12.923c-1.689 0-2.534-.844-2.534-2.534V19.41c0-.676-.338-1.014-1.013-1.014h-47.639c-1.689 0-2.534-.844-2.534-2.534V4.966c0-1.689.845-2.534 2.534-2.534h117.322ZM340.374 181.836c-11.994 0-22.553-2.449-31.675-7.348s-16.217-11.741-21.285-20.525c-4.899-8.953-7.348-19.258-7.348-30.914V59.193c0-11.656 2.449-21.877 7.348-30.66 5.068-8.954 12.163-15.88 21.285-20.78C317.821 2.856 328.38.406 340.374.406s22.552 2.45 31.674 7.349c9.291 4.899 16.386 11.825 21.285 20.778 5.068 8.784 7.602 19.005 7.602 30.661v63.856c0 11.656-2.534 21.961-7.602 30.914-4.899 8.784-11.994 15.626-21.285 20.525-9.122 4.899-19.68 7.348-31.674 7.348Zm0-15.457c12.838 0 23.143-3.885 30.914-11.656 7.771-7.771 11.656-18.076 11.656-30.914v-64.87c0-12.838-3.885-23.143-11.656-30.914-7.771-7.94-18.076-11.91-30.914-11.91-12.67 0-22.89 3.97-30.661 11.91-7.771 7.771-11.656 18.076-11.656 30.915v64.869c0 12.838 3.885 23.143 11.656 30.914 7.771 7.771 17.991 11.656 30.661 11.656ZM546.655 179.809c-1.52 0-2.534-.591-3.041-1.774l-37.249-78.552c-.169-.507-.506-.76-1.013-.76h-43.077c-.676 0-1.014.338-1.014 1.013v77.539c0 1.69-.845 2.534-2.534 2.534h-12.923c-1.689 0-2.534-.844-2.534-2.534V4.966c0-1.689.845-2.534 2.534-2.534h65.629c14.528 0 26.269 4.562 35.222 13.684 8.954 8.953 13.43 20.694 13.43 35.222 0 11.825-3.21 21.876-9.629 30.154-6.419 8.277-15.119 13.599-26.1 15.964-.675.337-.844.76-.506 1.267l38.009 78.045c.169.338.253.761.253 1.267 0 1.183-.675 1.774-2.027 1.774h-13.43Zm-84.38-161.666c-.676 0-1.014.338-1.014 1.014v64.109c0 .675.338 1.013 1.014 1.013h47.131c9.798 0 17.738-3.04 23.819-9.122 6.082-6.082 9.122-14.021 9.122-23.82 0-9.797-3.04-17.737-9.122-23.818-6.081-6.25-14.021-9.376-23.819-9.376h-47.131ZM600.959 179.809c-1.689 0-2.534-.844-2.534-2.534V4.966c0-1.689.845-2.534 2.534-2.534h12.923c1.69 0 2.534.845 2.534 2.534v172.309c0 1.69-.844 2.534-2.534 2.534h-12.923ZM778.789 15.609c0 1.69-.845 2.534-2.534 2.534h-93.249c-.676 0-1.014.338-1.014 1.014v62.588c0 .676.338 1.014 1.014 1.014h65.376c1.689 0 2.534.844 2.534 2.534v10.642c0 1.69-.845 2.534-2.534 2.534h-65.376c-.676 0-1.014.338-1.014 1.014v63.602c0 .676.338 1.014 1.014 1.014h93.249c1.689 0 2.534.844 2.534 2.534v10.642c0 1.69-.845 2.534-2.534 2.534h-109.72c-1.689 0-2.534-.844-2.534-2.534V4.966c0-1.689.845-2.534 2.534-2.534h109.72c1.689 0 2.534.845 2.534 2.534V15.61ZM868.61 181.836c-19.089 0-34.209-4.307-45.358-12.923-10.98-8.615-16.471-20.103-16.471-34.462v-7.855c0-1.689.845-2.534 2.534-2.534h12.417c1.689 0 2.534.845 2.534 2.534v6.842c0 9.798 4.054 17.737 12.163 23.819 8.108 5.913 19.342 8.869 33.701 8.869 13.008 0 22.89-2.703 29.647-8.109 6.758-5.575 10.136-12.923 10.136-22.045 0-5.913-1.605-10.981-4.814-15.204-3.041-4.223-7.856-8.193-14.444-11.91-6.419-3.716-15.541-8.024-27.367-12.923-12.669-5.068-22.552-9.46-29.647-13.176-6.926-3.886-12.585-8.785-16.977-14.697-4.223-6.082-6.335-13.683-6.335-22.806 0-14.19 4.899-25.17 14.697-32.941 9.967-7.94 23.566-11.91 40.796-11.91 18.752 0 33.533 4.392 44.345 13.177 10.811 8.784 16.217 20.44 16.217 34.968v5.575c0 1.69-.845 2.534-2.534 2.534h-12.67c-1.689 0-2.534-.845-2.534-2.534v-4.561c0-9.798-3.885-17.822-11.656-24.073-7.602-6.25-18.244-9.375-31.928-9.375-11.994 0-21.201 2.45-27.62 7.348-6.419 4.9-9.629 11.994-9.629 21.285 0 6.082 1.521 11.15 4.561 15.204 3.21 3.886 7.687 7.349 13.43 10.39 5.913 2.871 14.951 6.672 27.113 11.402 12.332 5.068 22.215 9.798 29.648 14.19 7.602 4.392 13.683 9.798 18.244 16.218 4.73 6.25 7.095 13.936 7.095 23.059 0 14.19-5.237 25.508-15.71 33.955-10.474 8.446-25.002 12.669-43.584 12.669ZM1074.41 181.836c-11.82 0-22.3-2.365-31.42-7.095-9.12-4.73-16.22-11.318-21.28-19.765-5.07-8.615-7.61-18.582-7.61-29.9V4.966c0-1.689.85-2.534 2.54-2.534h12.92c1.69 0 2.54.845 2.54 2.534v120.617c0 11.994 3.88 21.792 11.65 29.393 7.77 7.433 17.99 11.15 30.66 11.15 12.67 0 22.89-3.717 30.66-11.15 7.77-7.601 11.66-17.399 11.66-29.393V4.966c0-1.689.84-2.534 2.53-2.534h12.93c1.69 0 2.53.845 2.53 2.534v120.11c0 11.318-2.53 21.285-7.6 29.9-4.9 8.447-11.91 15.035-21.03 19.765-9.13 4.73-19.68 7.095-31.68 7.095ZM1286.11 4.966c0-1.689.84-2.534 2.53-2.534h12.93c1.68 0 2.53.845 2.53 2.534v172.309c0 1.69-.85 2.534-2.53 2.534h-12.67c-1.19 0-2.2-.591-3.05-1.774l-86.4-140.634c-.17-.507-.43-.676-.76-.507-.34 0-.51.254-.51.76l.25 139.621c0 1.69-.84 2.534-2.53 2.534h-12.92c-1.69 0-2.54-.844-2.54-2.534V4.966c0-1.689.85-2.534 2.54-2.534h12.67c1.18 0 2.19.592 3.04 1.774l86.4 140.635c.17.506.43.76.76.76.34-.169.51-.507.51-1.014l-.25-139.62ZM1458.61 2.432c1.69 0 2.54.845 2.54 2.534v10.896c0 1.69-.85 2.534-2.54 2.534h-49.66c-.68 0-1.01.338-1.01 1.014v157.865c0 1.69-.85 2.534-2.54 2.534h-12.92c-1.69 0-2.54-.844-2.54-2.534V19.41c0-.676-.33-1.014-1.01-1.014h-47.64c-1.69 0-2.53-.844-2.53-2.534V4.966c0-1.689.84-2.534 2.53-2.534h117.32ZM1538.56 181.836c-12 0-22.55-2.449-31.68-7.348-9.12-4.899-16.21-11.741-21.28-20.525-4.9-8.953-7.35-19.258-7.35-30.914V59.193c0-11.656 2.45-21.877 7.35-30.66 5.07-8.954 12.16-15.88 21.28-20.78 9.13-4.898 19.68-7.348 31.68-7.348 11.99 0 22.55 2.45 31.67 7.349 9.29 4.899 16.39 11.825 21.29 20.778 5.06 8.784 7.6 19.005 7.6 30.661v63.856c0 11.656-2.54 21.961-7.6 30.914-4.9 8.784-12 15.626-21.29 20.525-9.12 4.899-19.68 7.348-31.67 7.348Zm0-15.457c12.84 0 23.14-3.885 30.91-11.656 7.77-7.771 11.66-18.076 11.66-30.914v-64.87c0-12.838-3.89-23.143-11.66-30.914-7.77-7.94-18.07-11.91-30.91-11.91-12.67 0-22.89 3.97-30.66 11.91-7.77 7.771-11.66 18.076-11.66 30.915v64.869c0 12.838 3.89 23.143 11.66 30.914 7.77 7.771 17.99 11.656 30.66 11.656ZM1643.99 179.809c-1.69 0-2.54-.844-2.54-2.534V4.966c0-1.689.85-2.534 2.54-2.534h12.92c1.69 0 2.53.845 2.53 2.534v158.119c0 .676.34 1.014 1.02 1.014h89.45c1.69 0 2.53.844 2.53 2.534v10.642c0 1.69-.84 2.534-2.53 2.534h-105.92ZM1788.01 179.809c-1.69 0-2.54-.844-2.54-2.534V4.966c0-1.689.85-2.534 2.54-2.534h59.8c16.72 0 29.98 4.393 39.78 13.177 9.97 8.784 14.95 20.694 14.95 35.729v79.566c0 15.035-4.98 26.944-14.95 35.729-9.8 8.784-23.06 13.176-39.78 13.176h-59.8Zm15.45-16.724c0 .676.34 1.014 1.02 1.014h44.09c10.98 0 19.68-3.21 26.1-9.629 6.59-6.42 9.88-15.035 9.88-25.847V53.872c0-10.98-3.21-19.68-9.63-26.1-6.42-6.42-15.2-9.63-26.35-9.63h-44.09c-.68 0-1.02.339-1.02 1.015v143.928Z" fill="#fff"/><path d="M1005.33 96.644h370.04v-7.6h-370.04v7.6Z" fill="#000"/><path d="M1375.37 94.109v-2.533c0-1.687-.84-2.535-2.53-2.535h-364.97c-1.69 0-2.54.848-2.54 2.535v2.533c0 1.69.85 2.533 2.54 2.533h364.97c1.69 0 2.53-.843 2.53-2.533Z" fill="#F7E547"/></svg>