<svg width="1247" height="464" fill="none" xmlns="http://www.w3.org/2000/svg"><mask id="a" style="mask-type:luminance" maskUnits="userSpaceOnUse" x="0" y="0" width="1247" height="464"><path d="M0 .693h1246.25V464H0V.693Z" fill="#fff"/></mask><g mask="url(#a)"><path d="M655.241 41.866 666.033.694H0v463.3h544.601l10.792-41.175H35.685V41.866h619.556ZM703.191.83l-10.756 41.036h518.135V422.82H592.589l-10.645 40.618 664.306.557V.694" fill="#231F20" opacity=".9"/></g><path d="M218.4 338.6V153.8H183V125h101.4v28.8H249v184.8h-30.6ZM297.909 338.6V125h30.6v91.5h37.8V125h30.6v213.6h-30.6v-95.1h-37.8v95.1h-30.6ZM425.644 338.6V125h91.2v28.8h-60.6v62.7h52.8v28.8h-52.8V308h60.6v30.6h-91.2ZM612.443 338.6V153.8h-35.4V125h101.4v28.8h-35.4v184.8h-30.6ZM691.952 338.6V125h91.2v28.8h-60.6v62.7h52.8v28.8h-52.8V308h60.6v30.6h-91.2ZM864.787 263.9l-15-77.4h-.6l-15 77.4h30.6Zm-75.6 74.7 47.7-213.6h25.5l47.7 213.6h-30.6l-9-45.9h-41.7l-9 45.9h-30.6ZM925.155 338.6V125h29.4l39.3 113.1h.6L1033.46 125h29.7v213.6h-30.6V208.7h-.6l-30.3 91.8h-15.305l-30-91.8h-.6v129.9h-30.6Z" fill="#231F20"/></svg>