<svg class="" width="242" height="98" viewBox="0 0 242 98" fill="none" xmlns="http://www.w3.org/2000/svg">
    <path d="M15.6302 56.1C15.4322 56.1 15.3002 56.012 15.2342 55.836L13.9142 51.678C13.8922 51.612 13.8482 51.579 13.7822 51.579H3.91521C3.84921 51.579 3.80521 51.612 3.78321 51.678L2.46321 55.836C2.39721 56.012 2.26521 56.1 2.06721 56.1H0.285214C0.0432143 56.1 -0.0447857 55.979 0.0212143 55.737L7.31421 33.264C7.38021 33.088 7.51222 33 7.71022 33H9.95422C10.1522 33 10.2842 33.088 10.3502 33.264L17.6762 55.737L17.7092 55.869C17.7092 56.023 17.6102 56.1 17.4122 56.1H15.6302ZM4.44321 49.5C4.42121 49.544 4.42121 49.588 4.44321 49.632C4.48721 49.654 4.53121 49.665 4.57521 49.665H13.0892C13.1332 49.665 13.1662 49.654 13.1882 49.632C13.2322 49.588 13.2432 49.544 13.2212 49.5L8.93122 36.036C8.90921 35.992 8.87621 35.97 8.83221 35.97C8.78821 35.97 8.75521 35.992 8.73321 36.036L4.44321 49.5Z" fill="black"/>
    <path d="M22.6401 56.1C22.4201 56.1 22.3101 55.99 22.3101 55.77V33.33C22.3101 33.11 22.4201 33 22.6401 33H24.3231C24.5431 33 24.6531 33.11 24.6531 33.33V53.922C24.6531 54.01 24.6971 54.054 24.7851 54.054H36.4341C36.6541 54.054 36.7641 54.164 36.7641 54.384V55.77C36.7641 55.99 36.6541 56.1 36.4341 56.1H22.6401Z" fill="black"/>
    <path d="M41.726 56.1C41.506 56.1 41.396 55.99 41.396 55.77V33.33C41.396 33.11 41.506 33 41.726 33H43.409C43.629 33 43.739 33.11 43.739 33.33V53.922C43.739 54.01 43.783 54.054 43.871 54.054H55.52C55.74 54.054 55.85 54.164 55.85 54.384V55.77C55.85 55.99 55.74 56.1 55.52 56.1H41.726Z" fill="black"/>
    <path d="M94.8801 33.1397C96.8161 33.1397 98.3671 33.7337 99.5331 34.9217C100.721 36.1097 101.315 37.6717 101.315 39.6077C101.315 41.5217 100.71 43.0617 99.5001 44.2277C98.3121 45.3937 96.7391 45.9767 94.7811 45.9767H88.3461C88.2581 45.9767 88.2141 46.0207 88.2141 46.1087V55.9427C88.2141 56.1627 88.1041 56.2727 87.8841 56.2727H86.2011C85.9811 56.2727 85.8711 56.1627 85.8711 55.9427V33.4697C85.8711 33.2497 85.9811 33.1397 86.2011 33.1397H94.8801ZM94.6161 44.0297C95.9141 44.0297 96.9701 43.6337 97.7841 42.8417C98.5981 42.0277 99.0051 40.9607 99.0051 39.6407C99.0051 38.2987 98.5981 37.2207 97.7841 36.4067C96.9701 35.5927 95.9141 35.1857 94.6161 35.1857H88.3461C88.2581 35.1857 88.2141 35.2297 88.2141 35.3177V43.8977C88.2141 43.9857 88.2581 44.0297 88.3461 44.0297H94.6161Z" fill="black"/>
    <path d="M119.425 56.2727C119.227 56.2727 119.095 56.1957 119.029 56.0417L114.178 45.8117C114.156 45.7457 114.112 45.7127 114.046 45.7127H108.436C108.348 45.7127 108.304 45.7567 108.304 45.8447V55.9427C108.304 56.1627 108.194 56.2727 107.974 56.2727H106.291C106.071 56.2727 105.961 56.1627 105.961 55.9427V33.5027C105.961 33.2827 106.071 33.1727 106.291 33.1727H114.838C116.73 33.1727 118.259 33.7667 119.425 34.9547C120.591 36.1207 121.174 37.6497 121.174 39.5417C121.174 41.0817 120.756 42.3907 119.92 43.4687C119.084 44.5467 117.951 45.2397 116.521 45.5477C116.433 45.5917 116.411 45.6467 116.455 45.7127L121.405 55.8767C121.427 55.9207 121.438 55.9757 121.438 56.0417C121.438 56.1957 121.35 56.2727 121.174 56.2727H119.425ZM108.436 35.2187C108.348 35.2187 108.304 35.2627 108.304 35.3507V43.6997C108.304 43.7877 108.348 43.8317 108.436 43.8317H114.574C115.85 43.8317 116.884 43.4357 117.676 42.6437C118.468 41.8517 118.864 40.8177 118.864 39.5417C118.864 38.2657 118.468 37.2317 117.676 36.4397C116.884 35.6257 115.85 35.2187 114.574 35.2187H108.436Z" fill="black"/>
    <path d="M133.625 56.5367C132.063 56.5367 130.688 56.2177 129.5 55.5797C128.312 54.9417 127.388 54.0507 126.728 52.9067C126.09 51.7407 125.771 50.3987 125.771 48.8807V40.5647C125.771 39.0467 126.09 37.7157 126.728 36.5717C127.388 35.4057 128.312 34.5037 129.5 33.8657C130.688 33.2277 132.063 32.9087 133.625 32.9087C135.187 32.9087 136.562 33.2277 137.75 33.8657C138.96 34.5037 139.884 35.4057 140.522 36.5717C141.182 37.7157 141.512 39.0467 141.512 40.5647V48.8807C141.512 50.3987 141.182 51.7407 140.522 52.9067C139.884 54.0507 138.96 54.9417 137.75 55.5797C136.562 56.2177 135.187 56.5367 133.625 56.5367ZM133.625 54.5237C135.297 54.5237 136.639 54.0177 137.651 53.0057C138.663 51.9937 139.169 50.6517 139.169 48.9797V40.5317C139.169 38.8597 138.663 37.5177 137.651 36.5057C136.639 35.4717 135.297 34.9547 133.625 34.9547C131.975 34.9547 130.644 35.4717 129.632 36.5057C128.62 37.5177 128.114 38.8597 128.114 40.5317V48.9797C128.114 50.6517 128.62 51.9937 129.632 53.0057C130.644 54.0177 131.975 54.5237 133.625 54.5237Z" fill="black"/>
    <path d="M153.411 56.5367C151.915 56.5367 150.595 56.2507 149.451 55.6787C148.329 55.1067 147.46 54.3037 146.844 53.2697C146.228 52.2137 145.92 51.0037 145.92 49.6397V47.1317C145.92 46.9117 146.03 46.8017 146.25 46.8017H147.933C148.153 46.8017 148.263 46.9117 148.263 47.1317V49.6397C148.263 51.0917 148.725 52.2687 149.649 53.1707C150.595 54.0507 151.849 54.4907 153.411 54.4907C154.951 54.4907 156.194 54.0507 157.14 53.1707C158.086 52.2687 158.559 51.0917 158.559 49.6397V33.5027C158.559 33.2827 158.669 33.1727 158.889 33.1727H160.572C160.792 33.1727 160.902 33.2827 160.902 33.5027V49.6397C160.902 51.0037 160.583 52.2137 159.945 53.2697C159.329 54.3037 158.449 55.1067 157.305 55.6787C156.183 56.2507 154.885 56.5367 153.411 56.5367Z" fill="black"/>
    <path d="M182.39 34.8887C182.39 35.1087 182.28 35.2187 182.06 35.2187H169.916C169.828 35.2187 169.784 35.2627 169.784 35.3507V43.5017C169.784 43.5897 169.828 43.6337 169.916 43.6337H178.43C178.65 43.6337 178.76 43.7437 178.76 43.9637V45.3497C178.76 45.5697 178.65 45.6797 178.43 45.6797H169.916C169.828 45.6797 169.784 45.7237 169.784 45.8117V54.0947C169.784 54.1827 169.828 54.2267 169.916 54.2267H182.06C182.28 54.2267 182.39 54.3367 182.39 54.5567V55.9427C182.39 56.1627 182.28 56.2727 182.06 56.2727H167.771C167.551 56.2727 167.441 56.1627 167.441 55.9427V33.5027C167.441 33.2827 167.551 33.1727 167.771 33.1727H182.06C182.28 33.1727 182.39 33.2827 182.39 33.5027V34.8887Z" fill="black"/>
    <path d="M194.78 56.5697C193.24 56.5697 191.887 56.2727 190.721 55.6787C189.555 55.0627 188.642 54.2047 187.982 53.1047C187.344 51.9827 187.025 50.6957 187.025 49.2437V40.1687C187.025 38.7387 187.344 37.4737 187.982 36.3737C188.642 35.2737 189.555 34.4267 190.721 33.8327C191.887 33.2167 193.24 32.9087 194.78 32.9087C196.32 32.9087 197.673 33.2057 198.839 33.7997C200.005 34.3937 200.907 35.2297 201.545 36.3077C202.205 37.3857 202.535 38.6287 202.535 40.0367C202.535 40.1467 202.502 40.2347 202.436 40.3007C202.37 40.3667 202.293 40.3997 202.205 40.3997L200.522 40.4987C200.302 40.4987 200.192 40.3997 200.192 40.2017V40.1027C200.192 38.5407 199.697 37.2977 198.707 36.3737C197.717 35.4277 196.408 34.9547 194.78 34.9547C193.152 34.9547 191.843 35.4277 190.853 36.3737C189.863 37.3197 189.368 38.5627 189.368 40.1027V49.3427C189.368 50.8827 189.863 52.1257 190.853 53.0717C191.843 54.0177 193.152 54.4907 194.78 54.4907C196.408 54.4907 197.717 54.0287 198.707 53.1047C199.697 52.1587 200.192 50.9047 200.192 49.3427V49.2767C200.192 49.0787 200.302 48.9797 200.522 48.9797L202.205 49.0787C202.425 49.0787 202.535 49.1777 202.535 49.3757C202.535 50.8057 202.205 52.0707 201.545 53.1707C200.907 54.2487 200.005 55.0847 198.839 55.6787C197.673 56.2727 196.32 56.5697 194.78 56.5697Z" fill="black"/>
    <path d="M221.762 33.1727C221.982 33.1727 222.092 33.2827 222.092 33.5027V34.9217C222.092 35.1417 221.982 35.2517 221.762 35.2517H215.294C215.206 35.2517 215.162 35.2957 215.162 35.3837V55.9427C215.162 56.1627 215.052 56.2727 214.832 56.2727H213.149C212.929 56.2727 212.819 56.1627 212.819 55.9427V35.3837C212.819 35.2957 212.775 35.2517 212.687 35.2517H206.483C206.263 35.2517 206.153 35.1417 206.153 34.9217V33.5027C206.153 33.2827 206.263 33.1727 206.483 33.1727H221.762Z" fill="black"/>
    <path d="M233.556 56.5367C231.07 56.5367 229.101 55.9757 227.649 54.8537C226.219 53.7317 225.504 52.2357 225.504 50.3657V49.3427C225.504 49.1227 225.614 49.0127 225.834 49.0127H227.451C227.671 49.0127 227.781 49.1227 227.781 49.3427V50.2337C227.781 51.5097 228.309 52.5437 229.365 53.3357C230.421 54.1057 231.884 54.4907 233.754 54.4907C235.448 54.4907 236.735 54.1387 237.615 53.4347C238.495 52.7087 238.935 51.7517 238.935 50.5637C238.935 49.7937 238.726 49.1337 238.308 48.5837C237.912 48.0337 237.285 47.5167 236.427 47.0327C235.591 46.5487 234.403 45.9877 232.863 45.3497C231.213 44.6897 229.926 44.1177 229.002 43.6337C228.1 43.1277 227.363 42.4897 226.791 41.7197C226.241 40.9277 225.966 39.9377 225.966 38.7497C225.966 36.9017 226.604 35.4717 227.88 34.4597C229.178 33.4257 230.949 32.9087 233.193 32.9087C235.635 32.9087 237.56 33.4807 238.968 34.6247C240.376 35.7687 241.08 37.2867 241.08 39.1787V39.9047C241.08 40.1247 240.97 40.2347 240.75 40.2347H239.1C238.88 40.2347 238.77 40.1247 238.77 39.9047V39.3107C238.77 38.0347 238.264 36.9897 237.252 36.1757C236.262 35.3617 234.876 34.9547 233.094 34.9547C231.532 34.9547 230.333 35.2737 229.497 35.9117C228.661 36.5497 228.243 37.4737 228.243 38.6837C228.243 39.4757 228.441 40.1357 228.837 40.6637C229.255 41.1697 229.838 41.6207 230.586 42.0167C231.356 42.3907 232.533 42.8857 234.117 43.5017C235.723 44.1617 237.01 44.7777 237.978 45.3497C238.968 45.9217 239.76 46.6257 240.354 47.4617C240.97 48.2757 241.278 49.2767 241.278 50.4647C241.278 52.3127 240.596 53.7867 239.232 54.8867C237.868 55.9867 235.976 56.5367 233.556 56.5367Z" fill="black"/>
    <path fill-rule="evenodd" clip-rule="evenodd" d="M56.0378 97L83.5378 0L85.462 0.545511L57.962 97.5455L56.0378 97Z" fill="black"/>
</svg>