<svg width="1254" height="348" fill="none" xmlns="http://www.w3.org/2000/svg"><g opacity=".9" fill="#fff"><path d="m737.39.1-8.07 30.78h497.6v285.71H654.44l-7.98 30.46 607.23.42V0M701.43 30.88 709.52 0H0v347.48h618.45l8.09-30.88H26.76V30.88h674.67Z"/><path d="M109.2 249.76h22.22v-65.57l30.5-89.54h-23.53l-17.86 61.65h-.44l-17.86-61.65H78.7l30.5 89.54v65.57ZM193.54 131.25c0-10.67 6.97-15.69 15.03-15.69 8.06 0 15.03 5.01 15.03 15.69v81.91c0 10.68-6.97 15.69-15.03 15.69-8.06 0-15.03-5.01-15.03-15.69v-81.91Zm-22.22 81.91c0 25.27 19.17 37.91 37.25 37.91s37.25-12.64 37.25-37.91v-81.91c0-25.27-19.17-37.91-37.25-37.91s-37.25 12.64-37.25 37.91v81.91ZM1016.41 131.42c0-10.62 6.94-15.61 14.96-15.61s14.96 4.99 14.96 15.61v81.5c0 10.62-6.94 15.61-14.96 15.61s-14.96-4.99-14.96-15.61v-81.5Zm-22.11 81.5c0 25.15 19.08 37.72 37.07 37.72 17.99 0 37.07-12.57 37.07-37.72v-81.5c0-25.15-19.08-37.72-37.07-37.72-17.99 0-37.07 12.57-37.07 37.72v81.5ZM265.12 249.76h22.22v-66.23h13.29l20.7 66.23h23.53l-23.96-70.8c14.16-7.84 19.17-20.91 19.17-38.78 0-30.06-12.85-45.53-39.21-45.53h-35.73v155.11h-.01Zm22.22-134.2h11.55c16.34 0 18.95 8.5 18.95 24.18s-2.4 24.18-17.86 24.18h-12.64v-48.36ZM430.26 93.83h-22.22v118.08c0 10.89-5.88 16.12-13.73 16.12-7.85 0-13.73-5.23-13.73-16.12V93.83h-22.22v120.26c0 20.26 16.12 36.16 35.95 36.16 19.83 0 35.95-15.9 35.95-36.16V93.83ZM472.61 115.21h9.15c14.6 0 19.61 7.19 19.61 20.91 0 13.72-3.92 21.79-18.74 21.79h-10.02v-42.7Zm0 62.3h9.8c16.12 0 18.95 8.06 18.95 23.53s-1.31 26.14-19.17 26.14h-9.59v-49.67h.01Zm-22.23 71.9h30.28c28.76 0 41.61-15.25 41.61-42.26v-8.71c0-16.12-4.79-25.49-15.25-30.5 9.8-6.1 15.25-12.2 15.25-28.76v-5.66c0-20.26-10.67-39.21-39.43-39.21h-32.46v155.11-.01ZM530.9 248.94h22.22l6.54-33.33h30.28l6.54 33.33h22.22L584.06 93.83h-18.52L530.9 248.94Zm54.9-54.24h-22.22l10.89-56.21h.44l10.89 56.21ZM812.39 249.34h22.11l6.5-33.16h30.13l6.5 33.16h22.11L865.27 95h-18.43l-34.47 154.34h.02Zm54.62-53.97H844.9l10.84-55.93h.43l10.84 55.93ZM805.42 128.45c0-17.18-14.79-35.02-36.98-35.02-25.45 0-38.06 18.92-38.06 42.41 0 19.36 5 31.97 24.14 39.8l15.88 6.52c10.88 4.35 12.83 6.96 12.83 23.49 0 14.14-1.09 23.06-16.09 23.06-11.31 0-15.66-7.83-15.66-15.88v-6.96h-22.19v8.26c0 20.88 16.31 36.76 37.85 36.76 28.71 0 38.28-19.36 38.28-45.46 0-22.62-3.7-35.02-23.27-42.41l-16.97-6.74c-11.53-4.57-12.61-8.7-12.61-20.66 0-10.22 2.83-20.01 15.01-20.01 11.31 0 15.66 8.48 15.66 18.71v5h22.19v-10.88l-.01.01ZM899.86 249.6h23.49l19.14-52.2 19.36 52.2h23.49l-31.97-81.13 29.58-73.73h-23.49l-16.97 45.89-16.75-45.89h-23.49l28.93 73.73-31.32 81.13ZM1087.22 249.6h22.18v-93.09h.44l33.93 93.09h20.88V94.74h-22.19v93.31h-.43l-33.5-93.31h-21.31V249.6ZM701.74 30.47l-75.3 287.35 28.01-.42 75.16-286.83-27.87-.1Z"/></g></svg>