<svg width="935" height="348" fill="none" xmlns="http://www.w3.org/2000/svg"><path d="m527.599.4-8 30.8h388.6v285.701h-463.5l-8 30.4 498.2.5V.301m-443.2 30.9 8.1-30.9H.199v347.5h408.5l8.1-30.9h-389.8v-285.7h464.7Z" fill="#fff"/><path fill-rule="evenodd" clip-rule="evenodd" d="M820.699 137.801h-22.7v-5.1c0-10.5-4.4-19.1-15.9-19.1-12.5 0-15.4 10-15.4 20.4 0 12.2 1.1 16.4 12.9 21.1l17.3 6.9c20 7.5 23.8 20.2 23.8 43.3 0 26.6-9.8 46.4-39.1 46.4-22 0-38.6-16.2-38.6-37.5v-8.5h22.6v7.1c0 8.2 4.5 16.2 16 16.2 15.3 0 16.4-9.1 16.4-23.5 0-16.9-2-19.5-13.1-24l-16.2-6.6c-19.5-8-24.6-20.9-24.6-40.7 0-23.9 12.9-43.3 38.8-43.3 22.7 0 37.8 18.2 37.8 35.8v11.1Zm-137.7-24.2h-26.2v-21.3h75.1v21.3h-26.2v136.7h-22.7v-136.7Zm-38.8 101.5c0 19.5-15.8 36.6-36 36.6-17.3 0-37.3-8.4-37.3-37.3v-87c0-20.6 14.9-36.4 36.9-36.4 20.9 0 36.4 15.8 36.4 37.7v8.9h-22.7v-7.5c0-8.9-5.3-16.5-13.9-16.5-11.4 0-14 7.8-14 18.5v80.8c0 9.1 3.5 16.2 13.7 16.2 6.3 0 14.2-3.6 14.2-16v-7.8h22.7v9.8Zm-159.6-122.7h67.5v21.3h-44.9v46.4h39.1v21.3h-39.1v46.4h44.9v22.6h-67.5v-158Zm-26.9 120.8c0 20.9-14.4 38.6-38.6 38.6-14.4 0-24-8-29.5-14.2l17.7-14.2c3.1 3.1 7.8 5.8 12.5 5.8 5.5 0 15.3-3.4 15.3-19.1v-117.7h22.6v120.8Zm-154.1-83.4c0-25.8 19.6-38.7 38-38.7s38 12.9 38 38.7v83.4c0 25.8-19.6 38.7-38 38.7s-38-12.9-38-38.7v-83.4Zm22.7 83.5c0 10.9 7.1 16 15.3 16 8.2 0 15.3-5.1 15.3-16v-83.5c0-10.9-7.1-16-15.3-16-8.2 0-15.3 5.1-15.3 16v83.5Zm-121.4-120.7h36.4c26.8 0 39.9 15.7 39.9 46.4 0 18.2-5.1 31.5-19.5 39.5l24.4 72.1h-24l-21.1-67.5h-13.5v67.5h-22.6v-158Zm22.6 70.6h12.9c15.7 0 18.2-8.9 18.2-24.6 0-16-2.7-24.7-19.3-24.7h-11.8v49.3Zm-113-70.6h34c12.4 0 21.5 2.9 29.3 11.1 7.7 8.2 10.2 18.2 10.2 37.1 0 13.8-1.1 23.1-6.4 31.8-6.3 10.2-16.3 16.4-32.9 16.4h-11.5v61.7h-22.7v-158.1Zm22.7 75h10.8c18.5 0 18.7-10.8 18.7-26.6 0-14.9 0-27.1-17.8-27.1h-11.7v53.7Z" fill="#fff"/></svg>